<svg width="30" height="31" viewBox="0 0 30 31" fill="none" xmlns="http://www.w3.org/2000/svg">
<path d="M6.53381 16.3454H20.4827L14.3886 22.4394C13.9016 22.9264 13.9016 23.7257 14.3886 24.2127C14.8757 24.6997 15.6624 24.6997 16.1494 24.2127L24.3789 15.9832C24.8659 15.4962 24.8659 14.7095 24.3789 14.2224L16.1619 5.98048C15.9286 5.74665 15.6118 5.61523 15.2815 5.61523C14.9512 5.61523 14.6344 5.74665 14.4011 5.98048C13.9141 6.46751 13.9141 7.25424 14.4011 7.74127L20.4827 13.8478H6.53381C5.84699 13.8478 5.28503 14.4098 5.28503 15.0966C5.28503 15.7834 5.84699 16.3454 6.53381 16.3454Z" fill="#380623"/>
</svg>
