<svg width="140" height="140" viewBox="0 0 140 140" fill="none" xmlns="http://www.w3.org/2000/svg">
<g clip-path="url(#clip0_102_3217)">
<circle cx="70" cy="70" r="70" fill="#DAE3EA"/>
<g clip-path="url(#clip1_102_3217)">
<path d="M69.2667 53.0406L69.2634 53.0628L69.2544 53.1268L68.3204 59.819L62.6016 61.9142L62.512 61.8715L59.3102 60.3531L57.6546 54.0101L57.5411 53.5747L57.5757 53.5614L64.6587 50.9043L69.2625 53.0381L69.2667 53.0406Z" fill="#FF3838"/>
<path d="M62.512 61.8725L59.3102 60.3542L57.5411 53.5757L57.5757 53.5625L62.1902 55.5065L62.512 61.8725Z" fill="#FF3838"/>
<path opacity="0.2" d="M62.5923 61.7938L60.1569 57.1335L60.4697 55.8123L58.9965 54.0801L58.8711 54.1865L60.2903 55.8553L59.2302 60.3338L59.3904 60.3718L60.099 57.378L62.4464 61.8698L62.5923 61.7938Z" fill="black"/>
<path d="M69.2667 53.1227L69.2544 53.1268L62.1902 55.5877L57.6546 54.0101L57.5411 53.5747L57.5757 53.5614L64.6587 50.9043L69.2625 53.0381L69.2634 53.0628L69.2667 53.1227Z" fill="#3F3D56"/>
<path d="M62.3136 55.7113L60.8735 54.6021L61.2027 53.3696L65.3169 51.8906L68.1146 52.0549L69.2255 52.9999L69.3077 53.2463L62.3136 55.7113Z" fill="#FF3838"/>
<path d="M57.6234 53.5747L60.8736 53.4514L62.6344 52.8547L65.3796 51.8902L65.893 51.1509L64.612 50.9219L57.6234 53.5747Z" fill="#FF3838"/>
<path d="M64.099 52.2538L62.4043 52.8477L62.4588 53.0027L64.1535 52.4088L64.099 52.2538Z" fill="#CCCCCC"/>
<path d="M41.7768 42.6445L40.9823 46.611L44.6899 49.3877L46.4114 44.2311L41.7768 42.6445Z" fill="#9F616A"/>
<path d="M44.7561 46.2805C46.7306 46.2805 48.3313 44.6822 48.3313 42.7106C48.3313 40.7389 46.7306 39.1406 44.7561 39.1406C42.7816 39.1406 41.1809 40.7389 41.1809 42.7106C41.1809 44.6822 42.7816 46.2805 44.7561 46.2805Z" fill="#9F616A"/>
<path d="M37.0099 69.7584C37.0263 70.9102 42.0499 83.7286 41.3524 85.3977C40.2529 86.52 37.8879 92.4934 36.8774 94.0869C36.7451 94.0868 36.083 96.0701 36.083 96.0701C36.083 96.0701 37.672 98.5823 39.3934 97.5245C41.5579 92.4412 46.9786 89.6061 47.0744 82.9808C47.336 85.0737 48.1083 98.5078 48.1083 98.5078C48.1083 98.5078 47.9602 98.5706 51.2951 98.8897C51.8128 91.0927 53.9287 77.8276 49.1919 69.4939C47.7355 68.8329 37.0099 69.7584 37.0099 69.7584Z" fill="#2F2E41"/>
<path d="M48.1081 98.2461C47.9533 98.5434 46.8431 101.287 47.8534 101.562C49.0185 101.88 50.1478 101.435 50.1478 101.435C50.1478 101.435 52.1874 102.071 53.4355 101.263C54.0181 100.681 53.8857 100.152 53.6076 99.7688C53.4664 99.5799 53.2855 99.4241 53.0777 99.3123C52.8699 99.2004 52.6402 99.1352 52.4045 99.1212C51.7711 99.0761 51.57 98.9589 51.4974 98.6691C51.3915 98.2461 48.1081 98.2461 48.1081 98.2461Z" fill="#2F2E41"/>
<path d="M37.2129 95.8516C37.2129 95.8516 34.3669 96.749 34.9661 97.7959C35.3552 98.4448 35.9233 98.968 36.6025 99.3028C36.6025 99.3028 37.1961 101.746 38.8438 101.746C39.6676 101.746 39.9484 101.279 40.0233 100.811C40.0572 100.578 40.0396 100.34 39.9719 100.114C39.9042 99.8885 39.7879 99.6802 39.6312 99.5039C39.2152 99.0248 39.156 98.7999 39.3099 98.5438C39.5346 98.1699 37.2129 95.8516 37.2129 95.8516Z" fill="#2F2E41"/>
<path d="M49.8546 70.1469C49.8546 70.1469 49.3243 71.2046 47.2058 70.8075C45.0872 70.4117 36.7456 70.8075 36.7456 70.8075C36.7456 70.8075 37.2083 61.3543 36.149 55.6685C35.0897 49.9828 39.2605 46.7435 39.2605 46.7435L40.585 45.421C41.9094 45.2899 44.7061 49.3935 44.7061 49.3935C45.6264 49.5475 46.4855 53.4538 47.2185 57.1501C47.2618 57.3614 47.3026 57.5701 47.3434 57.7789C47.6812 59.5023 48.1516 61.4204 48.4333 63.1426C48.4537 63.2648 48.4728 63.3857 48.4907 63.5066C48.8255 65.7429 49.2808 67.9595 49.8546 70.1469Z" fill="#E6E6E6"/>
<path d="M40.5737 40.4874C40.5737 40.4874 39.9052 39.019 41.6432 38.3516C41.6432 38.3516 43.1137 35.9488 46.0548 37.5507C46.0548 37.5507 48.0602 38.3516 48.0602 40.4874C48.0602 42.6233 48.7286 43.0238 48.7286 43.0238C48.7286 43.0238 47.7332 42.0041 47.4658 41.2031C47.1984 40.4022 45.119 40.2205 44.3169 41.0214C43.5148 41.8224 41.5095 41.6889 41.5095 41.6889L41.6432 44.6257C41.6432 44.6257 40.9747 42.8903 40.7073 42.8903C40.44 42.8903 40.1726 40.4874 40.5737 40.4874Z" fill="#2F2E41"/>
<path opacity="0.2" d="M48.4333 63.1414C45.2746 61.4269 40.158 57.667 38.5072 55.633C36.3313 52.9537 38.7048 50.9172 38.7048 50.9172C41.3957 49.2218 44.6131 55.0386 44.6131 55.0386L47.2186 57.1489C47.2619 57.3602 47.3027 57.569 47.3435 57.7777C47.6813 59.5011 48.1516 61.4192 48.4333 63.1414Z" fill="black"/>
<path d="M57.8628 61.1657C57.8628 61.1657 62.5588 63.0692 63.3317 60.9294C64.1046 58.7895 59.6241 58.8262 59.6241 58.8262L57.8652 59.0751L57.8628 61.1657Z" fill="#9F616A"/>
<path d="M38.1029 50.0476C38.1029 50.0476 35.7305 52.0853 37.9049 54.7637C40.0793 57.4421 50.072 63.1649 50.072 63.1649L56.5811 61.4079L58.4232 61.7445L58.7705 58.2912L56.0568 58.5557L49.1681 57.0911L44.7755 53.5322C44.7755 53.5322 40.7931 48.3531 38.1029 50.0476Z" fill="#E6E6E6"/>
<path opacity="0.2" d="M46.7453 74.5938L47.1603 84.2775L46.1079 74.5938H46.7453Z" fill="black"/>
<path d="M91.5556 67.6678L87.7878 68.5395C87.4963 68.607 87.19 68.5583 86.934 68.4038C86.6779 68.2493 86.4922 68.0012 86.4164 67.7122C86.3725 67.5446 86.3671 67.3692 86.4006 67.1993C86.4342 67.0293 86.5059 66.8691 86.6103 66.7307C86.7147 66.5924 86.8491 66.4794 87.0035 66.4003C87.1579 66.3212 87.3282 66.278 87.5016 66.274L91.141 66.1895L91.5556 67.6678Z" fill="#FFB9B9"/>
<path d="M91.1555 68.2188L90.3187 65.7121L95.3354 64.0011L94.0039 52.293C96.4011 52.7282 97.542 54.6105 97.4352 57.0411L98.0842 65.0304L91.1555 68.2188Z" fill="#3F3D56"/>
<path d="M94.6217 49.7125H102.818V45.6426C102.821 44.5434 102.389 43.4875 101.617 42.7039C101.24 42.3178 100.79 42.0112 100.292 41.802C99.7942 41.5929 99.2595 41.4856 98.7195 41.4863C97.641 41.4883 96.6067 41.914 95.8401 42.6715C95.0735 43.4289 94.6363 44.4571 94.623 45.5339C94.6223 45.5712 94.6217 45.6066 94.6217 45.6426L94.6217 49.7125Z" fill="#2F2E41"/>
<path d="M106.245 97.5393L103.625 97.2391L100.489 76.0958L94.0039 97.3249L91.1692 97.4106L94.3905 71.2924L93.918 65.3311L101.95 62.8008C107.638 66.766 107.521 80.7715 106.245 97.5393Z" fill="#2F2E41"/>
<path d="M97.9983 48.9062C99.7062 48.9062 101.091 47.5237 101.091 45.8183C101.091 44.113 99.7062 42.7305 97.9983 42.7305C96.2904 42.7305 94.9059 44.113 94.9059 45.8183C94.9059 47.5237 96.2904 48.9062 97.9983 48.9062Z" fill="#FFB9B9"/>
<path d="M101.091 51.3929L95.8508 52.7653C96.7337 51.07 97.0162 49.4874 96.538 48.0477L100.232 47.4473C99.9944 48.8239 100.302 50.2389 101.091 51.3929Z" fill="#FFB9B9"/>
<path d="M102.852 63.9586C99.9128 65.8249 96.4893 67.9689 93.961 65.8886L92.7584 60.0559C91.8026 59.2058 92.2264 56.5826 93.5186 52.8435C93.6007 52.6062 93.7358 52.3906 93.9137 52.2132C94.0916 52.0357 94.3076 51.9011 94.5454 51.8194L96.538 51.1354C97.4212 51.877 98.8688 51.4347 100.575 50.4492L102.551 50.9639L103.41 57.3969C102.17 59.252 102.387 61.7222 102.852 63.9586Z" fill="#3F3D56"/>
<path d="M100.403 66.4666L96.6356 67.3384C96.3441 67.4058 96.0378 67.3571 95.7817 67.2026C95.5257 67.0481 95.34 66.8 95.2642 66.511C95.2202 66.3434 95.2148 66.1681 95.2484 65.9981C95.282 65.8281 95.3537 65.6679 95.4581 65.5296C95.5625 65.3912 95.6969 65.2782 95.8513 65.1991C96.0057 65.12 96.1759 65.0768 96.3494 65.0728L99.9888 64.9883L100.403 66.4666Z" fill="#FFB9B9"/>
<path d="M105.789 101.581C105.349 101.781 104.981 100.538 104.61 100.903C103.571 101.921 101.081 101.693 101.081 101.693C100.997 101.666 100.92 101.623 100.854 101.565C100.787 101.508 100.733 101.437 100.695 101.358C100.657 101.279 100.635 101.193 100.631 101.106C100.627 101.018 100.641 100.931 100.672 100.849C100.709 100.75 100.769 100.662 100.847 100.593C100.926 100.523 101.02 100.473 101.122 100.447L102.226 100.172L103.96 97.1274L105.849 96.8887L105.897 96.9666C106.262 97.5544 106.498 98.2132 106.588 98.8991C106.678 99.585 106.62 100.282 106.419 100.944C106.262 101.447 106.048 101.463 105.789 101.581Z" fill="#2F2E41"/>
<path d="M93.3338 101.581C92.8938 101.781 92.5252 100.538 92.154 100.903C91.1158 101.921 88.6252 101.693 88.6252 101.693C88.5416 101.666 88.4643 101.623 88.398 101.565C88.3317 101.508 88.2778 101.437 88.2396 101.358C88.2013 101.279 88.1795 101.193 88.1755 101.106C88.1715 101.018 88.1853 100.931 88.2161 100.849C88.253 100.75 88.3133 100.662 88.3917 100.593C88.4702 100.523 88.5644 100.473 88.6664 100.447L89.7705 100.172L91.5042 97.1274L93.3936 96.8887L93.4413 96.9666C93.8065 97.5544 94.042 98.2132 94.1321 98.8991C94.2221 99.585 94.1646 100.282 93.9633 100.944C93.8062 101.447 93.5923 101.463 93.3338 101.581Z" fill="#2F2E41"/>
<path d="M101.624 43.2421L100.845 45.7164L94.111 45.5969C94.134 44.7312 94.4272 43.8943 94.9497 43.2031C95.4722 42.5119 96.1979 42.001 97.0254 41.7416C97.8529 41.4822 98.7408 41.4874 99.5652 41.7564C100.39 42.0254 101.109 42.5449 101.624 43.2421H101.624Z" fill="#2F2E41"/>
<path d="M100.003 67.0194L99.1665 64.5127L104.183 62.8017L102.285 50.8398C103.445 51.0503 104.488 51.6729 105.223 52.5925C105.958 53.5121 106.335 54.6663 106.283 55.8417L106.932 63.831L100.003 67.0194Z" fill="#3F3D56"/>
<path d="M88.0213 60.26L82.8036 61.3804L81.7375 56.2544L83.7012 53.6213L85.4685 53.2852L87.4322 55.2739L88.0213 60.26Z" fill="#CCCCCC"/>
<path d="M85.6087 60.4845H82.4666L82.0383 58.3729L81.5692 56.0589L82.2703 55.0508L83.6177 55.4708L85.0759 57.4882L85.4418 59.5438L85.4673 59.6902L85.6087 60.4845Z" fill="#E6E6E6"/>
<path d="M90.8827 59.2519L87.2639 59.6721L87.9092 55.0783L89.3678 53.7617L90.6301 54.0699L91.4718 56.0027L90.8827 59.2519Z" fill="#CCCCCC"/>
<path d="M91.359 56.5354L91.0225 58.3848L89.9288 64.6866L85.721 66.0319L85.5757 65.953L83.308 64.7146L82.032 58.3708L82.0384 58.3734L85.4125 59.7289L85.4418 59.5444L85.4622 59.4107L85.721 57.7688L86.8708 56.5354L90.714 55.6113L91.359 56.5354Z" fill="#E6E6E6"/>
<path d="M88.6945 56.3396C89.1903 56.3396 89.5922 55.9383 89.5922 55.4432C89.5922 54.9482 89.1903 54.5469 88.6945 54.5469C88.1988 54.5469 87.7969 54.9482 87.7969 55.4432C87.7969 55.9383 88.1988 56.3396 88.6945 56.3396Z" fill="#E6E6E6"/>
<path d="M86.4875 55.9054L84.4397 56.2695L84.4495 56.3247L86.4974 55.9605L86.4875 55.9054Z" fill="white"/>
<path d="M85.5756 65.9525L83.3079 64.7141L82.0319 58.3703L82.0383 58.3729L81.5692 56.0589L82.2703 55.0508L83.6177 55.4708L85.0759 57.4882L85.4418 59.5438L85.4622 59.4102L85.4673 59.6902L85.4813 60.4845L85.5756 65.9525Z" fill="#F2F2F2"/>
<path d="M83.3356 64.7217L83.2813 64.7071L84.3998 60.5188L83.119 58.8327L83.1638 58.7988L84.4612 60.5067L83.3356 64.7217Z" fill="#CCCCCC"/>
<path d="M83.9672 62.3312L83.9166 62.3555L85.6958 66.0437L85.7463 66.0194L83.9672 62.3312Z" fill="#CCCCCC"/>
<path opacity="0.2" d="M91.1382 57.9994L90.9276 59.1616L90.9169 59.1627L89.9738 64.5958L85.7659 65.9403L85.7407 65.9524L85.7238 65.9173L83.3534 64.6238L83.3262 64.6165L83.3408 64.5616L82.077 58.2793L82.0835 58.2818L81.9435 57.5922L82.0481 57.4417L82.3716 56.9768L83.7181 57.3969L85.1768 59.4137L85.1981 59.5336L85.3513 60.3941L85.4127 60.7398L85.5426 61.47L85.666 60.6854L85.7104 60.4031L85.822 59.6938L86.9722 58.4614L87.4836 58.3384L87.8396 58.2527L88.3293 58.135C88.1774 58.0428 88.0564 57.9077 87.9815 57.7467C87.9066 57.5857 87.8812 57.4062 87.9086 57.2308C87.936 57.0554 88.015 56.8921 88.1354 56.7616C88.2559 56.631 88.4125 56.5392 88.5853 56.4976C88.7581 56.456 88.9394 56.4666 89.1062 56.528C89.273 56.5894 89.4177 56.6989 89.5221 56.8426C89.6265 56.9863 89.6859 57.1577 89.6926 57.335C89.6994 57.5124 89.6532 57.6878 89.56 57.8389L90.8154 57.537L91.1248 57.9804L91.1382 57.9994Z" fill="black"/>
<path d="M85.7097 62.692H82.5678L81.6702 58.2663L82.3715 57.2578L83.718 57.678L85.1767 59.6948L85.7097 62.692Z" fill="#E6E6E6"/>
<path d="M90.0298 66.894L85.8219 68.2385L83.4094 66.922L82.1331 60.5775L85.5134 61.9359L85.8219 59.9752L86.9721 58.7427L90.8153 57.8184L91.4605 58.7427L91.1239 60.5915L90.0298 66.894Z" fill="#E6E6E6"/>
<path d="M88.7955 58.5466C89.2913 58.5466 89.6932 58.1453 89.6932 57.6503C89.6932 57.1552 89.2913 56.7539 88.7955 56.7539C88.2997 56.7539 87.8978 57.1552 87.8978 57.6503C87.8978 58.1453 88.2997 58.5466 88.7955 58.5466Z" fill="#E6E6E6"/>
<path d="M85.6789 68.1166L83.4112 66.8781L82.1352 60.5344L82.1416 60.5369L81.6725 58.2229L82.3736 57.2148L83.7209 57.6349L85.1792 59.6523L85.545 61.7079L85.5654 61.5743L85.5705 61.8543L85.5845 62.6485L85.6789 68.1166Z" fill="#F2F2F2"/>
<path d="M83.4365 66.9287L83.3824 66.9143L84.5009 62.7258L83.22 61.0397L83.2647 61.0059L84.5622 62.7139L83.4365 66.9287Z" fill="#CCCCCC"/>
<path d="M84.0681 64.5382L84.0176 64.5625L85.7967 68.2507L85.8472 68.2264L84.0681 64.5382Z" fill="#CCCCCC"/>
<path d="M120.909 96.1975L115.691 97.3179L114.625 92.1919L116.589 89.5588L118.356 89.2227L120.319 91.2114L120.909 96.1975Z" fill="#CCCCCC"/>
<path d="M118.496 96.422H115.354L114.926 94.3104L114.457 91.9964L115.158 90.9883L116.505 91.4083L117.963 93.4257L118.329 95.4813L118.355 95.6277L118.496 96.422Z" fill="#E6E6E6"/>
<path d="M123.77 95.1893L120.151 95.6096L120.796 91.0157L122.255 89.6992L123.517 90.0072L124.359 91.94L123.77 95.1893Z" fill="#CCCCCC"/>
<path d="M124.246 92.4729L123.91 94.3223L122.816 100.624L118.608 101.969L118.463 101.891L116.195 100.652L114.919 94.3083L114.926 94.3109L118.3 95.6664L118.329 95.4819L118.35 95.3482L118.608 93.7063L119.758 92.4729L123.601 91.5488L124.246 92.4729Z" fill="#E6E6E6"/>
<path d="M121.582 92.2771C122.078 92.2771 122.479 91.8758 122.479 91.3807C122.479 90.8857 122.078 90.4844 121.582 90.4844C121.086 90.4844 120.684 90.8857 120.684 91.3807C120.684 91.8758 121.086 92.2771 121.582 92.2771Z" fill="#E6E6E6"/>
<path d="M119.375 91.8429L117.327 92.207L117.337 92.2622L119.385 91.898L119.375 91.8429Z" fill="white"/>
<path d="M118.463 101.89L116.195 100.652L114.919 94.3078L114.926 94.3104L114.457 91.9964L115.158 90.9883L116.505 91.4083L117.963 93.4257L118.329 95.4813L118.349 95.3477L118.355 95.6277L118.369 96.422L118.463 101.89Z" fill="#F2F2F2"/>
<path d="M116.223 100.659L116.169 100.645L117.287 96.4563L116.006 94.7702L116.051 94.7363L117.348 96.4442L116.223 100.659Z" fill="#CCCCCC"/>
<path d="M116.854 98.2687L116.804 98.293L118.583 101.981L118.633 101.957L116.854 98.2687Z" fill="#CCCCCC"/>
<path d="M131.219 101.48H127.777L127.267 94.8613H131.729L131.219 101.48Z" fill="#E6E6E6"/>
<path d="M131.792 97.5352H127.203V98.5534H131.792V97.5352Z" fill="#F2F2F2"/>
<path d="M132.972 95.3356L132.238 95.1198L132.228 94.8517L128.968 93.8926L128.814 94.1128L128.081 93.897L127.62 94.5576L133 96.1401L132.972 95.3356Z" fill="#CCCCCC"/>
<path d="M25.0346 93.1264L25.0312 93.1486L25.0222 93.2127L24.0882 99.905L18.3694 102L18.2798 101.957L15.078 100.439L13.4224 94.0959L13.309 93.6605L13.3435 93.6474L20.4265 90.9902L25.0303 93.124L25.0346 93.1264Z" fill="#FF3838"/>
<path d="M18.2798 101.956L15.078 100.438L13.309 93.6596L13.3435 93.6465L17.958 95.5905L18.2798 101.956Z" fill="#FF3838"/>
<path opacity="0.2" d="M18.3602 101.88L15.9247 97.2194L16.2375 95.8983L14.7643 94.166L14.6389 94.2724L16.0582 95.9413L14.998 100.42L15.1582 100.458L15.8668 97.464L18.2142 101.956L18.3602 101.88Z" fill="black"/>
<path d="M25.0346 93.2086L25.0222 93.2127L17.958 95.6735L13.4224 94.0959L13.309 93.6605L13.3435 93.6474L20.4265 90.9902L25.0303 93.124L25.0312 93.1486L25.0346 93.2086Z" fill="#3F3D56"/>
<path d="M18.0815 95.7972L16.6415 94.6879L16.9706 93.4555L21.0848 91.9766L23.8825 92.1409L24.9935 93.0857L25.0757 93.3322L18.0815 95.7972Z" fill="#FF3838"/>
<path d="M13.3912 93.6605L16.6415 93.5373L18.4022 92.9405L21.1474 91.9762L21.6609 91.2367L20.3798 91.0078L13.3912 93.6605Z" fill="#FF3838"/>
<path d="M19.8668 92.3378L18.1721 92.9316L18.2266 93.0867L19.9213 92.4928L19.8668 92.3378Z" fill="#CCCCCC"/>
<path d="M10.5889 101.632H7.14721L6.63733 95.0137H11.0988L10.5889 101.632Z" fill="#FF3838"/>
<path d="M11.1625 97.6855H6.57361V98.7038H11.1625V97.6855Z" fill="#E6E6E6"/>
<path d="M11.3537 94.6315H10.5889L10.5039 94.377H7.10478L7.01976 94.6315H6.25494L6 95.3952H11.6087L11.3537 94.6315Z" fill="#3F3D56"/>
<path d="M109.039 101.555H31.7799V101.809H109.039V101.555Z" fill="#3F3D56"/>
</g>
</g>
<defs>
<clipPath id="clip0_102_3217">
<rect width="140" height="140" fill="white"/>
</clipPath>
<clipPath id="clip1_102_3217">
<rect width="127" height="65" fill="white" transform="translate(6 37)"/>
</clipPath>
</defs>
</svg>
