<svg width="140" height="140" viewBox="0 0 140 140" fill="none" xmlns="http://www.w3.org/2000/svg">
<g clip-path="url(#clip0_102_3118)">
<circle cx="70" cy="70" r="70" fill="#DAE3EA"/>
<g clip-path="url(#clip1_102_3118)">
<path d="M110.355 66.4557C110.355 93.2178 94.0859 91.4912 67.3503 91.4912C61.4074 91.4912 50.3136 113.839 45.0549 111.878H45.0533C44.8597 111.807 44.6676 111.733 44.4756 111.657C44.4208 111.637 44.3659 111.616 44.3127 111.594C44.0109 111.478 43.7108 111.356 43.4123 111.232C42.7975 110.977 42.1892 110.709 41.5889 110.431C41.2775 110.286 40.9677 110.139 40.6611 109.987C37.8147 108.59 35.1249 106.919 32.6254 105.012C31.3668 104.053 30.155 103.03 28.998 101.954C28.0396 101.063 27.1182 100.134 26.2372 99.1682C25.9596 98.8661 25.6885 98.5609 25.4207 98.2524C25.311 98.128 25.2045 98.0036 25.0996 97.8793C24.3396 96.9893 23.6135 96.0703 22.9196 95.1254C22.6953 94.8201 22.4743 94.5116 22.2564 94.1999C20.7768 92.084 19.4617 89.8421 18.3289 87.4968C15.2599 81.133 13.5398 73.9954 13.5398 66.4557C13.5398 39.6936 35.212 18 61.9476 18C88.6833 18 110.355 39.6936 110.355 66.4557Z" fill="#F2F2F2"/>
<path d="M143.391 93.9267C143.36 93.5763 142.521 93.5318 142.512 93.2225C142.502 92.9144 143.332 92.8513 144.115 92.1718C144.256 92.0492 145.147 91.277 144.979 90.8259C144.662 89.9707 140.824 91.0214 140.247 89.7951C140.12 89.526 140.137 89.1187 139.771 88.2679C139.626 87.9294 139.522 87.7582 139.358 87.7243C139.125 87.6762 138.975 87.9467 138.489 88.3868C137.76 89.0469 137.586 88.9022 137.077 89.4635C136.698 89.8802 136.596 90.1788 136.399 90.152C136.121 90.114 136.147 89.4916 135.82 89.3909C135.486 89.2881 135.009 89.7981 134.734 90.2191C134.217 91.0091 134.259 91.7149 134.149 92.383C134.03 93.109 133.676 94.1298 132.587 95.2923L122.55 105.26C124.676 103.247 130.649 97.7973 133.001 95.8359C133.68 95.2697 134.398 94.7097 135.287 94.78C136.142 94.8478 137.053 95.4916 138.462 95.7951C138.627 95.8305 139.086 95.9233 139.253 95.7071C139.392 95.5284 139.204 95.3013 139.331 95.1325C139.501 94.9061 139.976 95.1309 140.696 95.1223C141.204 95.1162 141.576 94.9971 141.896 94.8946C141.993 94.8637 143.432 94.3931 143.391 93.9267L143.391 93.9267Z" fill="#F2F2F2"/>
<path d="M123.583 92.1816C123.403 92.0955 123.139 92.4948 122.984 92.4103C122.83 92.3261 123.039 91.9002 122.932 91.3194C122.912 91.2146 122.791 90.5545 122.521 90.5067C122.01 90.4159 121.418 92.6044 120.65 92.5341C120.482 92.5187 120.287 92.3928 119.764 92.3271C119.556 92.301 119.442 92.3027 119.378 92.3735C119.288 92.474 119.377 92.6259 119.452 92.9916C119.566 93.5401 119.445 93.5837 119.573 93.996C119.668 94.302 119.785 94.4387 119.715 94.5275C119.616 94.6532 119.318 94.4607 119.175 94.5924C119.028 94.7269 119.14 95.1082 119.267 95.365C119.506 95.847 119.864 96.03 120.16 96.2766C120.481 96.5447 120.88 97.0133 121.135 97.8835L123.127 105.691C122.753 104.065 121.804 99.5586 121.521 97.8371C121.44 97.3402 121.372 96.8257 121.663 96.4094C121.943 96.0085 122.522 95.747 123.077 95.1422C123.142 95.0715 123.32 94.8726 123.262 94.7281C123.215 94.6085 123.049 94.635 123.003 94.5241C122.941 94.3753 123.188 94.2069 123.392 93.8504C123.536 93.599 123.584 93.3819 123.627 93.1952C123.639 93.1389 123.824 92.2961 123.583 92.1815L123.583 92.1816Z" fill="#F2F2F2"/>
<path d="M126.791 94.7216L127.149 93.6988L127.234 93.6491C127.627 93.4194 127.904 93.1435 128.057 92.8288C128.081 92.7787 128.103 92.7275 128.125 92.6753C128.213 92.4683 128.322 92.211 128.594 91.9807C128.746 91.8526 129.135 91.5733 129.423 91.7696C129.501 91.8216 129.545 91.8904 129.572 91.9585C129.584 91.9506 129.597 91.9429 129.61 91.9344C129.778 91.8333 129.885 91.8069 129.988 91.7815C130.067 91.7619 130.149 91.7418 130.296 91.6717C130.36 91.6409 130.412 91.6119 130.457 91.5877C130.591 91.5143 130.76 91.4312 130.944 91.5226C131.137 91.6271 131.162 91.8405 131.178 91.9817C131.208 92.2337 131.196 92.3996 131.189 92.5097C131.186 92.5498 131.183 92.5951 131.185 92.6105C131.204 92.7349 131.763 92.8965 131.974 92.9585C132.447 93.0962 132.856 93.2154 132.879 93.5671C132.896 93.8187 132.688 94.0402 132.242 94.2427C132.103 94.3056 131.97 94.3406 131.857 94.3633C131.906 94.4377 131.937 94.5308 131.915 94.6422C131.861 94.9058 131.545 95.0443 130.977 95.0548C130.836 95.0578 130.646 95.061 130.414 94.9949C130.305 94.9637 130.212 94.9242 130.134 94.8891C130.11 94.9333 130.076 94.977 130.025 95.014C129.874 95.1229 129.673 95.1128 129.429 94.9746C129.159 94.8267 128.956 94.6638 128.777 94.5205C128.62 94.3956 128.485 94.2884 128.363 94.2392C128.134 94.1508 127.879 94.2457 127.569 94.3788L126.791 94.7216H126.791Z" fill="#F2F2F2"/>
<path d="M130.072 89.1857L128.993 89.0988L128.923 89.0291C128.601 88.7067 128.265 88.5088 127.922 88.4405C127.867 88.4297 127.812 88.4216 127.756 88.4133C127.534 88.3807 127.257 88.3402 126.966 88.1352C126.804 88.0205 126.435 87.7152 126.552 87.3867C126.582 87.2981 126.637 87.2373 126.697 87.1945C126.686 87.1844 126.675 87.1741 126.663 87.1631C126.523 87.0265 126.471 86.9296 126.42 86.8364C126.381 86.7647 126.341 86.6906 126.236 86.5664C126.19 86.5119 126.148 86.4684 126.114 86.4317C126.009 86.3204 125.886 86.1778 125.927 85.9767C125.979 85.7633 126.179 85.685 126.312 85.6331C126.548 85.5405 126.711 85.5095 126.819 85.4889C126.859 85.4815 126.903 85.473 126.917 85.467C127.033 85.4174 127.047 84.8345 127.054 84.6152C127.067 84.1221 127.078 83.6955 127.412 83.5838C127.651 83.5036 127.918 83.6495 128.227 84.0301C128.323 84.1486 128.39 84.2679 128.441 84.3721C128.5 84.3055 128.582 84.2515 128.696 84.2452C128.964 84.2307 129.178 84.5008 129.332 85.0481C129.371 85.1841 129.422 85.367 129.417 85.6084C129.415 85.7221 129.4 85.822 129.386 85.9072C129.435 85.9185 129.485 85.9403 129.534 85.9808C129.678 86.0996 129.719 86.2967 129.647 86.5678C129.573 86.8669 129.467 87.1046 129.374 87.3143C129.293 87.4974 129.224 87.6553 129.207 87.7867C129.18 88.0309 129.336 88.2536 129.543 88.5195L130.072 89.1857L130.072 89.1857V89.1857Z" fill="#F2F2F2"/>
<path d="M130.942 86.083L131.3 85.0601L131.385 85.0104C131.778 84.7807 132.054 84.5048 132.207 84.1901C132.232 84.1401 132.253 84.0888 132.276 84.0366C132.363 83.8296 132.473 83.5723 132.745 83.3421C132.897 83.2139 133.285 82.9346 133.573 83.1309C133.651 83.1829 133.696 83.2518 133.722 83.3198C133.735 83.312 133.747 83.3042 133.761 83.2958C133.928 83.1947 134.035 83.1683 134.138 83.1428C134.218 83.1232 134.299 83.1032 134.446 83.033C134.51 83.0022 134.563 82.9733 134.607 82.949C134.741 82.8756 134.91 82.7926 135.094 82.8839C135.287 82.9884 135.312 83.2018 135.329 83.3431C135.358 83.5951 135.347 83.761 135.339 83.871C135.336 83.9112 135.333 83.9564 135.335 83.9719C135.354 84.0963 135.914 84.2578 136.124 84.3198C136.597 84.4575 137.007 84.5767 137.03 84.9284C137.047 85.18 136.838 85.4015 136.392 85.604C136.253 85.667 136.121 85.7019 136.007 85.7246C136.056 85.7991 136.088 85.8921 136.065 86.0035C136.011 86.2672 135.696 86.4056 135.128 86.4161C134.987 86.4191 134.797 86.4224 134.565 86.3563C134.456 86.325 134.363 86.2855 134.284 86.2505C134.261 86.2947 134.227 86.3383 134.175 86.3753C134.024 86.4843 133.823 86.4741 133.579 86.3359C133.309 86.188 133.106 86.0252 132.927 85.8818C132.771 85.7569 132.636 85.6498 132.513 85.6005C132.284 85.5121 132.029 85.607 131.72 85.7401L130.942 86.083V86.083Z" fill="#F2F2F2"/>
<path d="M122.882 105.4L122.74 105.175L122.804 104.916L122.74 105.175L122.49 105.088C122.497 105.064 122.508 105.007 122.527 104.919C122.629 104.434 122.941 102.958 123.67 100.748C124.18 99.2055 124.79 97.6616 125.486 96.1583C126.182 94.6528 126.796 93.555 127.29 92.6727C127.663 92.0072 128.028 91.3789 128.385 90.7671C129.338 89.1322 130.238 87.5878 130.997 85.7639C131.166 85.3568 131.519 84.5093 131.459 83.398C131.424 82.7534 131.257 82.1152 130.96 81.5016L131.439 81.2695C131.766 81.9475 131.952 82.6542 131.99 83.3698C132.057 84.602 131.672 85.5255 131.488 85.9692C130.715 87.8253 129.807 89.3845 128.845 91.0351C128.49 91.6448 128.125 92.2703 127.754 92.933C127.265 93.8072 126.656 94.8954 125.969 96.3816C125.282 97.8668 124.678 99.3919 124.175 100.915C123.455 103.097 123.149 104.551 123.048 105.029C122.994 105.284 122.983 105.337 122.882 105.4V105.4V105.4Z" fill="#F2F2F2"/>
<path d="M129.714 81.8409C129.695 81.8315 129.675 81.8214 129.656 81.8103C129.258 81.5917 128.998 81.1651 128.881 80.5424C128.827 80.2497 128.865 79.9637 128.94 79.3934C128.951 79.3054 129.014 78.8616 129.195 78.296C129.313 77.9263 129.389 77.7844 129.519 77.6895C129.663 77.5837 129.834 77.5436 130.005 77.5433C130.021 77.4944 130.049 77.4495 130.092 77.4108C130.27 77.25 130.474 77.3808 130.586 77.4501C130.642 77.4862 130.711 77.5317 130.793 77.5661C130.922 77.6206 131.008 77.6157 131.137 77.6088C131.261 77.6021 131.415 77.5938 131.614 77.6439C132.007 77.7412 132.257 77.9863 132.339 78.067C132.775 78.4896 132.837 79.0161 132.908 79.6258C132.922 79.7479 132.961 80.1866 132.869 80.7187C132.804 81.1025 132.718 81.2459 132.636 81.3435C132.466 81.5443 132.264 81.6084 131.771 81.7278C131.256 81.8531 130.998 81.9157 130.794 81.9314C130.321 81.9672 130.023 81.9897 129.714 81.8409V81.8409Z" fill="#F2F2F2"/>
<path d="M119.474 107.744H93.6061C89.7262 107.744 86.5697 104.585 86.5697 100.701V32.2504C86.5697 28.3667 89.7262 25.207 93.6061 25.207H119.474C123.354 25.207 126.51 28.3667 126.51 32.2504C126.992 59.738 127.813 90.5197 126.51 100.701C126.51 104.585 123.354 107.744 119.474 107.744Z" fill="#3F3D56"/>
<path d="M126.871 50.3848C126.707 50.3848 126.573 50.5184 126.573 50.6827V60.2177C126.573 60.382 126.707 60.5157 126.871 60.5157C127.035 60.5157 127.169 60.382 127.169 60.2177V50.6827C127.169 50.5184 127.035 50.3848 126.871 50.3848Z" fill="#3F3D56"/>
<path d="M124.079 33.1098L125.841 100.7C125.841 104.08 123.212 106.845 119.889 107.06H119.887C119.838 107.063 119.789 107.066 119.738 107.067C119.651 107.072 119.563 107.073 119.473 107.073C119.473 107.073 119.146 107.049 118.548 107.005C117.943 106.96 117.064 106.893 115.967 106.805C115.638 106.78 115.291 106.751 114.925 106.722C114.196 106.662 113.395 106.596 112.536 106.522C112.194 106.494 111.84 106.462 111.478 106.431C109.629 106.272 107.559 106.085 105.376 105.874C105.006 105.84 104.634 105.804 104.259 105.767C104.161 105.756 87.2396 101.498 87.2396 100.7V32.2505C87.2396 28.73 90.0898 25.877 93.6068 25.877H97.4081C98.0153 25.877 98.5035 26.3507 98.5556 26.9571C98.5601 26.9973 98.5646 27.0375 98.572 27.0778C98.6821 27.6871 99.2403 28.1117 99.8594 28.1117H113.221C113.84 28.1117 114.398 27.6871 114.508 27.0778C114.516 27.0375 114.52 26.9973 114.525 26.9571C114.577 26.3507 115.065 25.877 115.672 25.877H119.473C122.99 25.877 124.079 29.5893 124.079 33.1098Z" fill="white"/>
<path d="M86.4209 43.2344C86.2567 43.2344 86.1232 43.368 86.1232 43.5323V45.9161C86.1232 46.0804 86.2567 46.2141 86.4209 46.2141C86.5851 46.2141 86.7186 46.0804 86.7186 45.9161V43.5323C86.7186 43.368 86.5851 43.2344 86.4209 43.2344Z" fill="#3F3D56"/>
<path d="M86.4209 50.3848C86.2567 50.3848 86.1232 50.5184 86.1232 50.6827V55.3012C86.1232 55.4656 86.2567 55.5992 86.4209 55.5992C86.5851 55.5992 86.7186 55.4656 86.7186 55.3012V50.6827C86.7186 50.5184 86.5851 50.3848 86.4209 50.3848Z" fill="#3F3D56"/>
<path d="M86.4209 56.9414C86.2567 56.9414 86.1232 57.075 86.1232 57.2394V61.8579C86.1232 62.0222 86.2567 62.1558 86.4209 62.1558C86.5851 62.1558 86.7186 62.0222 86.7186 61.8579V57.2394C86.7186 57.075 86.5851 56.9414 86.4209 56.9414Z" fill="#3F3D56"/>
<path d="M97.3104 26.9199H91.6058C91.5782 26.9199 91.5558 26.9424 91.5558 26.97V27.6147C91.5558 27.6424 91.5782 27.6648 91.6058 27.6648H97.3104C97.338 27.6648 97.3604 27.6424 97.3604 27.6147V26.97C97.3604 26.9424 97.338 26.9199 97.3104 26.9199Z" fill="#E6E6E6"/>
<path d="M116.613 27.6645C116.941 27.6645 117.208 27.3977 117.208 27.0686C117.208 26.7395 116.941 26.4727 116.613 26.4727C116.284 26.4727 116.017 26.7395 116.017 27.0686C116.017 27.3977 116.284 27.6645 116.613 27.6645Z" fill="#E6E6E6"/>
<path d="M118.25 27.6645C118.579 27.6645 118.845 27.3977 118.845 27.0686C118.845 26.7395 118.579 26.4727 118.25 26.4727C117.921 26.4727 117.655 26.7395 117.655 27.0686C117.655 27.3977 117.921 27.6645 118.25 27.6645Z" fill="#E6E6E6"/>
<path d="M119.887 27.6645C120.216 27.6645 120.482 27.3977 120.482 27.0686C120.482 26.7395 120.216 26.4727 119.887 26.4727C119.558 26.4727 119.292 26.7395 119.292 27.0686C119.292 27.3977 119.558 27.6645 119.887 27.6645Z" fill="#E6E6E6"/>
<path d="M105.915 61.1603C110.594 61.1603 114.386 57.3639 114.386 52.6807C114.386 47.9976 110.594 44.2012 105.915 44.2012C101.237 44.2012 97.444 47.9976 97.444 52.6807C97.444 57.3639 101.237 61.1603 105.915 61.1603Z" fill="#FF3838"/>
<path d="M106.423 84.6331H68.7107C67.1925 84.6331 65.9575 83.3967 65.9575 81.8771V53.3322C65.9575 51.8126 67.1925 50.5762 68.7107 50.5762H106.423C107.941 50.5762 109.176 51.8126 109.176 53.3322V81.8771C109.176 83.3967 107.941 84.6331 106.423 84.6331Z" fill="white"/>
<path d="M106.423 84.6331H68.7107C67.1925 84.6331 65.9575 83.3967 65.9575 81.8771V53.3322C65.9575 51.8126 67.1925 50.5762 68.7107 50.5762H106.423C107.941 50.5762 109.176 51.8126 109.176 53.3322V81.8771C109.176 83.3967 107.941 84.6331 106.423 84.6331ZM68.7107 51.0364C67.4461 51.0364 66.4172 52.0663 66.4172 53.3322V81.8771C66.4172 83.143 67.4461 84.1729 68.7107 84.1729H106.423C107.688 84.1729 108.716 83.143 108.716 81.8771V53.3322C108.716 52.0663 107.688 51.0364 106.423 51.0364H68.7107Z" fill="#3F3D56"/>
<path d="M102.28 54.0272C102.661 54.0272 102.969 53.7181 102.969 53.3368C102.969 52.9556 102.661 52.6465 102.28 52.6465C101.899 52.6465 101.59 52.9556 101.59 53.3368C101.59 53.7181 101.899 54.0272 102.28 54.0272Z" fill="#3F3D56"/>
<path d="M104.119 54.0272C104.5 54.0272 104.808 53.7181 104.808 53.3368C104.808 52.9556 104.5 52.6465 104.119 52.6465C103.738 52.6465 103.429 52.9556 103.429 53.3368C103.429 53.7181 103.738 54.0272 104.119 54.0272Z" fill="#3F3D56"/>
<path d="M105.958 54.0272C106.339 54.0272 106.647 53.7181 106.647 53.3368C106.647 52.9556 106.339 52.6465 105.958 52.6465C105.577 52.6465 105.268 52.9556 105.268 53.3368C105.268 53.7181 105.577 54.0272 105.958 54.0272Z" fill="#3F3D56"/>
<path d="M69.8655 64.498C69.6754 64.498 69.5207 64.6529 69.5207 64.8432C69.5207 64.936 69.5565 65.0219 69.6215 65.0852C69.687 65.1524 69.7729 65.1884 69.8655 65.1884H105.498C105.688 65.1884 105.843 65.0336 105.843 64.8432C105.843 64.7504 105.807 64.6646 105.742 64.6012C105.676 64.534 105.591 64.498 105.498 64.498H69.8655Z" fill="#E6E6E6"/>
<path d="M99.0612 64.3828V65.3033H69.8655C69.7391 65.3033 69.6242 65.2526 69.5414 65.1675C69.4563 65.0847 69.4058 64.9696 69.4058 64.843C69.4058 64.5899 69.6127 64.3828 69.8655 64.3828H99.0612L99.0612 64.3828Z" fill="#FF3838"/>
<path d="M104.923 62.6573H100.326C99.8185 62.6573 99.406 62.2445 99.406 61.7369C99.406 61.2292 99.8185 60.8164 100.326 60.8164H104.923C105.43 60.8164 105.843 61.2292 105.843 61.7369C105.843 62.2445 105.43 62.6573 104.923 62.6573Z" fill="#E6E6E6"/>
<path d="M74.8081 57.8253H70.2104C69.7033 57.8253 69.2908 57.4125 69.2908 56.9048C69.2908 56.3972 69.7033 55.9844 70.2104 55.9844H74.8081C75.3152 55.9844 75.7277 56.3972 75.7277 56.9048C75.7277 57.4125 75.3152 57.8253 74.8081 57.8253Z" fill="#E6E6E6"/>
<path d="M69.8655 74.8535C69.6754 74.8535 69.5207 75.0084 69.5207 75.1987C69.5207 75.2915 69.5565 75.3773 69.6215 75.4407C69.687 75.5079 69.7729 75.5439 69.8655 75.5439H105.498C105.688 75.5439 105.843 75.389 105.843 75.1987C105.843 75.1059 105.807 75.02 105.742 74.9567C105.676 74.8895 105.591 74.8535 105.498 74.8535H69.8655Z" fill="#E6E6E6"/>
<path d="M81.3599 74.7383V75.6587H69.8655C69.7391 75.6587 69.6242 75.6081 69.5414 75.523C69.4563 75.4401 69.4058 75.3251 69.4058 75.1985C69.4058 74.9454 69.6127 74.7383 69.8655 74.7383H81.3599V74.7383Z" fill="#FF3838"/>
<path d="M104.923 73.0128H100.326C99.8185 73.0128 99.406 72.6 99.406 72.0923C99.406 71.5847 99.8185 71.1719 100.326 71.1719H104.923C105.43 71.1719 105.843 71.5847 105.843 72.0923C105.843 72.6 105.43 73.0128 104.923 73.0128Z" fill="#E6E6E6"/>
<path d="M44.6621 65.9065C45.6004 64.5682 45.6711 62.9988 44.8202 62.4012C43.9692 61.8036 42.519 62.4041 41.5806 63.743C41.1983 64.2727 40.9484 64.8863 40.8517 65.5325L36.9475 71.2532L39.6685 73.0299L43.2284 67.2017C43.8028 66.8908 44.2944 66.4466 44.6621 65.9065Z" fill="#A0616A"/>
<path d="M21.0364 72.9828C23.6313 78.5375 28.2197 87.4646 31.3179 88.431C32.3858 88.7649 33.466 87.9899 34.4926 86.6101C37.4654 82.6205 39.9944 73.5694 40.507 71.6565C40.5697 71.4238 40.6018 71.2966 40.6018 71.2966L38.0269 69.6702L37.8035 69.5293L33.899 74.9033L32.6964 76.5573C32.6964 76.5573 32.753 75.7334 32.8861 74.4071L26.7295 71.3885C26.7295 71.3885 23.3482 71.9521 21.0364 72.9828Z" fill="#3F3D56"/>
<path d="M34.0734 71.8486C37.7068 71.8486 40.6523 68.9002 40.6523 65.2632C40.6523 61.6261 37.7068 58.6777 34.0734 58.6777C30.4399 58.6777 27.4944 61.6261 27.4944 65.2632C27.4944 68.9002 30.4399 71.8486 34.0734 71.8486Z" fill="#A0616A"/>
<path d="M30.4648 107.744H25.5288C25.1609 107.362 24.7978 106.975 24.4412 106.584C24.0733 106.183 23.7151 105.78 23.3601 105.371C26.5873 104.704 29.253 104.24 29.253 104.24C29.253 104.24 29.3256 104.458 29.4611 104.851C29.666 105.455 30.013 106.468 30.4648 107.744Z" fill="#2F2E41"/>
<path d="M36.1389 71.1596L33.5193 75.7728L26.041 72.9974L28.948 67.1777L36.1389 71.1596Z" fill="#A0616A"/>
<path d="M40.7288 65.033L42.1058 64.8798L42.4118 63.9609H43.8677L43.9418 64.4204L46.2368 64.8798L45.7759 71.4746L44.7068 72.5373L41.7998 72.231L41.4938 67.0239H40.7288V65.033Z" fill="#2F2E41"/>
<path d="M45.4718 66.8716L58.3236 66.4121L58.6296 72.3849L45.0128 71.6192L45.4718 66.8716Z" fill="#2F2E41"/>
<path d="M36.5979 64.5744L37.0569 66.7185L37.8827 64.5744L38.9282 63.6284L39.3518 61.9709C39.3518 61.9709 41.9528 64.4213 41.6468 62.5835C41.3408 60.7457 41.0348 59.2142 39.5048 59.061C37.9749 58.9079 36.9039 59.2781 36.1389 58.9399C35.3739 58.6016 35.3739 56.1512 33.9969 57.0701C32.6199 57.989 32.3139 58.6016 31.2429 58.7547C30.172 58.9079 26.347 57.5296 26.5 60.7457C26.653 63.9618 28.03 64.8807 27.571 67.178C27.112 69.4752 31.3959 69.7815 31.3959 69.7815C31.3959 69.7815 32.9259 69.7815 32.9259 67.6374C32.9259 65.4933 36.5979 64.5744 36.5979 64.5744H36.5979Z" fill="#2F2E41"/>
<path d="M34.6133 91.8079V91.8095L31.9348 95.4679L31.896 97.5677L31.7783 103.857L29.4611 104.851L28.6447 107.743H24.9479C24.7527 107.519 24.7172 107.577 24.7478 107.743H11C11.526 105.905 12.4635 101.764 13.3768 97.5677C14.6467 91.7304 15.8666 85.7849 15.8666 85.7849C15.8666 85.7849 17.8562 74.9114 19.9974 73.5336C20.3008 73.3366 20.6542 73.1557 21.0366 72.9845C21.6142 72.7261 22.2597 72.4983 22.9003 72.2996C23.2311 72.1979 23.5602 72.1042 23.8813 72.0186C24.0943 71.9621 24.3041 71.9088 24.5042 71.8587C24.6058 71.8345 24.7042 71.8102 24.8011 71.7876C24.9947 71.7408 25.1803 71.6988 25.3529 71.6616C25.4158 71.6471 25.4772 71.6342 25.5369 71.6213C25.5821 71.6116 25.6256 71.6035 25.6692 71.5938C25.7192 71.5825 25.7676 71.5728 25.8144 71.5631C25.8612 71.5534 25.908 71.5437 25.9516 71.5356C26.0016 71.526 26.05 71.5163 26.0968 71.5066C26.1436 71.4969 26.1872 71.4888 26.2291 71.4807C26.2711 71.4727 26.3114 71.4646 26.3485 71.4581C26.3856 71.4517 26.4195 71.4452 26.4518 71.4387C26.5002 71.4291 26.5438 71.421 26.5793 71.4145C26.6035 71.4113 26.6244 71.4064 26.6438 71.4032C26.7003 71.3935 26.7293 71.3887 26.7293 71.3887L26.8197 71.4339H26.8213L32.8868 74.4091L33.8969 74.9049H33.8985L33.9873 74.9469L34.2261 75.0648L34.2455 75.9306L34.4923 86.6102L34.6133 91.8079L34.6133 91.8079Z" fill="#3F3D56"/>
<path d="M46.5957 71.2267C46.4345 69.5997 45.4652 68.3641 44.4308 68.4669C43.3964 68.5698 42.6888 69.972 42.8502 71.5995C42.9058 72.2506 43.1163 72.8788 43.4642 73.4317L44.2341 80.3168L47.4542 79.8863L46.3534 73.1445C46.586 72.5338 46.6691 71.8761 46.5957 71.2267V71.2267Z" fill="#A0616A"/>
<path d="M32.9259 76.3674C32.9259 76.3674 37.6689 74.0701 39.5048 78.5115C41.3408 82.9528 43.368 86.7243 43.368 86.7243L43.9418 78.052H47.2505C47.2505 78.052 53.1217 96.2768 48.5317 97.502C43.9418 98.7272 27.571 87.241 27.571 87.241L32.9259 76.3674V76.3674Z" fill="#3F3D56"/>
</g>
</g>
<defs>
<clipPath id="clip0_102_3118">
<rect width="140" height="140" fill="white"/>
</clipPath>
<clipPath id="clip1_102_3118">
<rect width="134" height="94" fill="white" transform="translate(11 18)"/>
</clipPath>
</defs>
</svg>
