<svg width="140" height="140" viewBox="0 0 140 140" fill="none" xmlns="http://www.w3.org/2000/svg">
<g clip-path="url(#clip0_102_3168)">
<circle cx="70" cy="70" r="70" fill="#DAE3EA"/>
<g clip-path="url(#clip1_102_3168)">
<path d="M69.6976 121.042C57.9261 121.042 46.818 117.33 37.5743 110.307L37.8563 109.959C47.0189 116.919 58.0294 120.598 69.6976 120.598C81.3749 120.598 92.3923 116.914 101.559 109.943L101.841 110.292C92.5932 117.324 81.4782 121.042 69.6976 121.042Z" fill="#3F3D56"/>
<path d="M122.017 105.991C122.473 106.019 122.725 105.45 122.38 105.119L122.346 104.982C122.35 104.971 122.355 104.96 122.36 104.949C122.821 103.845 124.385 103.852 124.842 104.958C125.248 105.94 125.765 106.923 125.893 107.96C125.95 108.418 125.924 108.885 125.823 109.334C126.774 107.249 127.275 104.971 127.275 102.681C127.275 102.106 127.243 101.53 127.179 100.956C127.126 100.487 127.054 100.02 126.959 99.5578C126.45 97.0585 125.348 94.678 123.757 92.6898C122.993 92.2704 122.355 91.6148 121.97 90.829C121.832 90.5455 121.723 90.2406 121.672 89.93C121.759 89.9415 122 88.6117 121.934 88.5301C122.055 88.3454 122.272 88.2536 122.405 88.0735C123.064 87.1774 123.971 87.3338 124.445 88.5516C125.457 89.0641 125.466 89.9141 124.846 90.7316C124.45 91.2517 124.396 91.9555 124.05 92.5123C124.085 92.5581 124.122 92.6025 124.158 92.6483C124.812 93.49 125.378 94.3947 125.854 95.3451C125.72 94.2888 125.919 93.0163 126.258 92.196C126.644 91.2613 127.367 90.4741 128.005 89.6661C128.77 88.6956 130.34 89.1192 130.475 90.3495C130.476 90.3614 130.477 90.3733 130.478 90.3852C130.384 90.4388 130.291 90.4957 130.201 90.5558C129.684 90.8987 129.862 91.7025 130.475 91.7973L130.488 91.7994C130.454 92.1416 130.396 92.4808 130.31 92.8143C131.128 95.987 129.363 97.1426 126.843 97.1945C126.787 97.2231 126.733 97.2517 126.677 97.2789C126.932 98.0004 127.136 98.7404 127.288 99.4905C127.423 100.153 127.517 100.823 127.57 101.496C127.636 102.345 127.63 103.198 127.559 104.045L127.563 104.015C127.744 103.082 128.249 102.21 128.982 101.606C130.074 100.706 131.618 100.374 132.796 99.6505C133.363 99.3021 134.09 99.7523 133.991 100.412L133.986 100.444C133.811 100.515 133.639 100.598 133.474 100.691C133.379 100.745 133.287 100.802 133.196 100.862C132.679 101.205 132.858 102.009 133.47 102.104L133.484 102.106C133.494 102.107 133.503 102.109 133.512 102.11C133.212 102.827 132.792 103.493 132.267 104.067C131.756 106.836 129.561 107.099 127.212 106.293H127.211C126.954 107.415 126.579 108.511 126.097 109.556H122.117C122.103 109.512 122.09 109.466 122.077 109.422C122.445 109.445 122.816 109.423 123.178 109.356C122.883 108.992 122.588 108.626 122.292 108.262C122.285 108.255 122.279 108.248 122.274 108.241C122.124 108.055 121.973 107.87 121.823 107.684L121.823 107.684C121.813 107.112 121.882 106.543 122.017 105.991L122.017 105.991Z" fill="#F2F2F2"/>
<path d="M9.99183 105.991C9.53558 106.019 9.28343 105.45 9.62861 105.119L9.66295 104.982C9.65843 104.971 9.65389 104.96 9.64931 104.949C9.18791 103.845 7.62416 103.852 7.16668 104.958C6.76063 105.94 6.24367 106.923 6.11638 107.96C6.05931 108.418 6.08499 108.885 6.18627 109.334C5.23484 107.249 4.73417 104.971 4.73417 102.681C4.73417 102.106 4.76555 101.53 4.82974 100.956C4.88252 100.487 4.95526 100.02 5.04942 99.5578C5.55863 97.0585 6.66127 94.678 8.25173 92.6898C9.01629 92.2704 9.6539 91.6148 10.039 90.829C10.1774 90.5455 10.2858 90.2406 10.3372 89.93C10.2501 89.9415 10.0091 88.6117 10.0747 88.5301C9.95344 88.3454 9.73641 88.2536 9.60398 88.0735C8.94534 87.1774 8.03791 87.3338 7.56419 88.5516C6.55221 89.0641 6.54242 89.9141 7.16336 90.7316C7.55841 91.2517 7.61269 91.9555 7.95931 92.5123C7.92364 92.5581 7.88655 92.6025 7.8509 92.6483C7.19695 93.49 6.63136 94.3947 6.15456 95.3451C6.28931 94.2888 6.09037 93.0163 5.7512 92.196C5.36512 91.2613 4.64147 90.4741 4.0042 89.6661C3.23874 88.6956 1.6691 89.1192 1.53424 90.3495C1.53294 90.3614 1.53167 90.3733 1.53042 90.3852C1.62508 90.4388 1.71781 90.4957 1.80839 90.5558C2.32506 90.8987 2.1465 91.7025 1.5343 91.7973L1.52044 91.7994C1.55468 92.1416 1.61316 92.4808 1.69874 92.8143C0.881207 95.987 2.6462 97.1426 5.16636 97.1945C5.222 97.2231 5.27621 97.2517 5.33184 97.2789C5.07651 98.0004 4.87252 98.7404 4.72133 99.4905C4.58582 100.153 4.49167 100.823 4.4389 101.496C4.37327 102.345 4.37899 103.198 4.45031 104.045L4.44603 104.015C4.26488 103.082 3.75992 102.21 3.02673 101.606C1.93451 100.706 0.391403 100.374 -0.786914 99.6505C-1.35412 99.3021 -2.08096 99.7523 -1.98196 100.412L-1.97715 100.444C-1.8017 100.515 -1.63053 100.598 -1.46507 100.691C-1.37041 100.745 -1.27768 100.802 -1.1871 100.862C-0.670428 101.205 -0.848989 102.009 -1.46118 102.104L-1.47506 102.106C-1.48504 102.107 -1.4936 102.109 -1.50357 102.11C-1.2026 102.827 -0.783239 103.493 -0.258316 104.067C0.252864 106.836 2.44839 107.099 4.79693 106.293H4.79836C5.05511 107.415 5.43026 108.511 5.9124 109.556H9.89211C9.90638 109.512 9.91922 109.466 9.93206 109.422C9.56404 109.445 9.19317 109.423 8.83085 109.356C9.12612 108.992 9.42139 108.626 9.71666 108.262C9.72379 108.255 9.72951 108.248 9.73521 108.241C9.88498 108.055 10.0362 107.87 10.186 107.684L10.186 107.684C10.1954 107.112 10.1272 106.543 9.99196 105.991L9.99183 105.991Z" fill="#F2F2F2"/>
<path d="M31.2739 110.113L31.0883 110.331C23.8398 104.128 19.6826 95.0908 19.6826 85.5373C19.6826 76.8351 23.0595 68.6539 29.1911 62.5008C35.3227 56.3477 43.4753 52.959 52.1472 52.959C60.819 52.959 68.9716 56.3477 75.1033 62.5008C81.2349 68.6539 84.6117 76.8351 84.6117 85.5373C84.6117 95.0908 80.4545 104.128 73.2061 110.331L73.0205 110.113" fill="#F2F2F2"/>
<path d="M102.334 109.988L102.048 109.651C113.143 100.156 119.506 86.3231 119.506 71.7007C119.506 44.2051 97.2145 21.8358 69.8149 21.8358C42.4154 21.8358 20.1243 44.2051 20.1243 71.7007C20.1243 86.3231 26.4874 100.156 37.582 109.651L37.2954 109.988C26.1023 100.408 19.6826 86.4532 19.6826 71.7007C19.6826 58.2625 24.8972 45.629 34.3657 36.1272C43.8343 26.6255 56.4237 21.3926 69.8149 21.3926C83.2062 21.3926 95.7955 26.6255 105.264 36.1272C114.733 45.629 119.947 58.2625 119.947 71.7007C119.947 86.4532 113.528 100.408 102.334 109.988V109.988Z" fill="#3F3D56"/>
<path d="M85.2346 109.898C85.2346 110.045 85.3517 110.162 85.4974 110.162H133.706C133.852 110.162 133.969 110.045 133.969 109.898C133.969 109.752 133.852 109.635 133.706 109.635H85.4974C85.3517 109.635 85.2346 109.752 85.2346 109.898Z" fill="#CCCCCC"/>
<path d="M70.0358 21.6133H69.5941V36.9942H70.0358V21.6133Z" fill="#3F3D56"/>
<path d="M35.5175 70.9688H20.1904V71.412H35.5175V70.9688Z" fill="#3F3D56"/>
<path d="M37.093 33.8428L36.7507 34.123L46.4417 46.0392L46.784 45.7589L37.093 33.8428Z" fill="#3F3D56"/>
<path d="M41.3801 91.6412L29.5078 101.369L29.7871 101.712L41.6594 91.9844L41.3801 91.6412Z" fill="#3F3D56"/>
<path d="M119.44 70.9688H104.112V71.412H119.44V70.9688Z" fill="#3F3D56"/>
<path d="M102.537 33.843L92.8463 45.7598L93.1886 46.04L102.879 34.1232L102.537 33.843Z" fill="#3F3D56"/>
<path d="M98.2486 91.643L97.9694 91.9863L109.844 101.711L110.123 101.368L98.2486 91.643Z" fill="#3F3D56"/>
<path d="M69.8149 76.3542C73.2301 76.3542 75.9987 73.5759 75.9987 70.1488C75.9987 66.7216 73.2301 63.9434 69.8149 63.9434C66.3998 63.9434 63.6312 66.7216 63.6312 70.1488C63.6312 73.5759 66.3998 76.3542 69.8149 76.3542Z" fill="#3F3D56"/>
<path d="M98.3043 93.8621C99.524 93.8621 100.513 92.8699 100.513 91.6459C100.513 90.4219 99.524 89.4297 98.3043 89.4297C97.0846 89.4297 96.0958 90.4219 96.0958 91.6459C96.0958 92.8699 97.0846 93.8621 98.3043 93.8621Z" fill="#3F3D56"/>
<path d="M103.163 73.9168C104.383 73.9168 105.371 72.9246 105.371 71.7006C105.371 70.4766 104.383 69.4844 103.163 69.4844C101.943 69.4844 100.954 70.4766 100.954 71.7006C100.954 72.9246 101.943 73.9168 103.163 73.9168Z" fill="#3F3D56"/>
<path d="M92.5622 48.2078C93.7819 48.2078 94.7707 47.2156 94.7707 45.9916C94.7707 44.7676 93.7819 43.7754 92.5622 43.7754C91.3425 43.7754 90.3538 44.7676 90.3538 45.9916C90.3538 47.2156 91.3425 48.2078 92.5622 48.2078Z" fill="#3F3D56"/>
<path d="M69.5941 39.7859C70.8138 39.7859 71.8026 38.7937 71.8026 37.5697C71.8026 36.3457 70.8138 35.3535 69.5941 35.3535C68.3744 35.3535 67.3856 36.3457 67.3856 37.5697C67.3856 38.7937 68.3744 39.7859 69.5941 39.7859Z" fill="#3F3D56"/>
<path d="M46.8469 48.2078C48.0666 48.2078 49.0554 47.2156 49.0554 45.9916C49.0554 44.7676 48.0666 43.7754 46.8469 43.7754C45.6272 43.7754 44.6384 44.7676 44.6384 45.9916C44.6384 47.2156 45.6272 48.2078 46.8469 48.2078Z" fill="#3F3D56"/>
<path d="M35.5837 73.2508C36.8034 73.2508 37.7922 72.2586 37.7922 71.0346C37.7922 69.8106 36.8034 68.8184 35.5837 68.8184C34.364 68.8184 33.3752 69.8106 33.3752 71.0346C33.3752 72.2586 34.364 73.2508 35.5837 73.2508Z" fill="#3F3D56"/>
<path d="M41.7674 93.6395C42.9871 93.6395 43.9759 92.6472 43.9759 91.4232C43.9759 90.1993 42.9871 89.207 41.7674 89.207C40.5477 89.207 39.559 90.1993 39.559 91.4232C39.559 92.6472 40.5477 93.6395 41.7674 93.6395Z" fill="#3F3D56"/>
<path d="M57.6819 72.8172C58.9016 72.8172 59.8903 71.825 59.8903 70.601C59.8903 69.377 58.9016 68.3848 57.6819 68.3848C56.4622 68.3848 55.4734 69.377 55.4734 70.601C55.4734 71.825 56.4622 72.8172 57.6819 72.8172Z" fill="#3F3D56"/>
<path d="M108.651 66.77L59.2266 68.9059C58.3736 68.9428 57.7119 69.6666 57.7486 70.5226L57.7486 70.5226C57.7854 71.3786 58.5067 72.0426 59.3597 72.0057L108.784 69.8699C109.637 69.833 110.298 69.1092 110.262 68.2532C110.225 67.3972 109.504 66.7332 108.651 66.77Z" fill="#FF3838"/>
<path d="M86.7954 127.089L84.2197 127.089L82.9944 117.119L86.7959 117.119L86.7954 127.089Z" fill="#A0616A"/>
<path d="M77.9707 127.031C77.8905 127.167 77.8481 127.604 77.8481 127.762C77.8481 128.247 78.2395 128.639 78.7223 128.639H86.6991C87.0284 128.639 87.2955 128.371 87.2955 128.041V127.708C87.2955 127.708 87.6901 126.706 86.8776 125.471C86.8776 125.471 85.8679 126.438 84.3591 124.924L83.9142 124.115L80.6935 126.479L78.9084 126.699C78.5178 126.748 78.1716 126.692 77.9707 127.031V127.031Z" fill="#2F2E41"/>
<path d="M100.359 127.089L97.7828 127.089L96.5575 117.119L100.359 117.119L100.359 127.089Z" fill="#A0616A"/>
<path d="M91.5338 127.031C91.4536 127.167 91.4113 127.604 91.4113 127.762C91.4113 128.247 91.8026 128.639 92.2855 128.639H100.262C100.592 128.639 100.859 128.371 100.859 128.041V127.708C100.859 127.708 101.253 126.706 100.441 125.471C100.441 125.471 99.431 126.438 97.9222 124.924L97.4773 124.115L94.2567 126.479L92.4715 126.699C92.0809 126.748 91.7347 126.692 91.5338 127.031V127.031Z" fill="#2F2E41"/>
<path d="M106.346 46.8329L106.619 58.542L104.093 69.0806L101.742 68.2966L102.427 58.6961L101.825 45.7598L106.346 46.8329Z" fill="#A0616A"/>
<path d="M104.144 70.7635C104.362 69.2534 103.815 67.9239 102.921 67.794C102.028 67.6641 101.127 68.783 100.909 70.2931C100.691 71.8032 101.238 73.1327 102.132 73.2626C103.025 73.3925 103.926 72.2736 104.144 70.7635Z" fill="#A0616A"/>
<path d="M100.402 36.2402C100.402 36.2402 104.736 36.2304 105.468 38.7784C106.228 41.4278 107.442 51.3092 106.917 51.3098L101.507 51.996L100.402 36.2402Z" fill="#FF3838"/>
<path d="M83.6565 48.0826L81.2686 59.5472L76.4213 69.2335L74.3094 67.9335L77.1518 58.7408L80.8217 46.0059L83.6565 48.0826Z" fill="#A0616A"/>
<path d="M76.0894 70.8837C76.644 69.4629 76.412 68.0433 75.5714 67.7129C74.7307 67.3825 73.5997 68.2664 73.0452 69.6872C72.4907 71.108 72.7226 72.5276 73.5633 72.858C74.4039 73.1884 75.5349 72.3045 76.0894 70.8837Z" fill="#A0616A"/>
<path d="M82.8843 36.7129C82.8843 36.7129 85.2538 37.7733 85.9164 40.3404C86.5191 42.6754 88.0093 52.9509 83.6309 52.4685L78.1097 52.0253C78.0705 46.5716 80.4167 41.4297 82.8843 36.7129Z" fill="#FF3838"/>
<path d="M82.1825 70.1488L81.2991 78.1272L81.7408 100.546L82.6242 121.565H87.2967L92.5623 83.2245L95.9776 121.565H101.403L102.942 95.6353C102.942 95.6353 104.046 71.4786 102.059 69.484C100.071 67.4894 82.1825 70.1488 82.1825 70.1488Z" fill="#2F2E41"/>
<path d="M96.8688 32.1406H89.6339L88.0349 34.3568C88.0349 34.3568 84.9431 34.8001 82.9554 36.7947L82.7346 58.0703L81.2991 71.9828L102.94 71.3676L101.617 63.7217L102.499 36.8863C102.499 36.8863 100.182 34.1352 98.6356 34.5785L96.8688 32.1406Z" fill="#FF3838"/>
<path d="M91.415 30.9546C94.4047 30.9546 96.8284 28.5225 96.8284 25.5222C96.8284 22.522 94.4047 20.0898 91.415 20.0898C88.4253 20.0898 86.0016 22.522 86.0016 25.5222C86.0016 28.5225 88.4253 30.9546 91.415 30.9546Z" fill="#A0616A"/>
<path d="M96.0659 20.4644C95.4603 19.9292 94.6292 19.6211 93.8362 19.6757C93.3555 19.7088 92.8887 19.5571 92.462 19.3326C92.4331 19.3174 92.4036 19.3036 92.3737 19.2912C92.1047 19.1796 91.8057 19.1671 91.5146 19.1742C90.9841 19.1871 90.3568 18.6532 89.9414 19.3936C88.3692 19.0964 88.224 20.0133 87.4923 20.5536C87.285 20.4309 85.9441 20.6544 85.8029 20.8752C85.6954 21.0434 85.6207 21.2147 85.5701 21.381C85.5377 21.4877 85.7339 21.877 85.719 21.9775C85.7041 22.078 85.4781 21.8896 85.4763 21.9796C85.4713 22.2204 85.5047 22.4159 85.5328 22.5249C85.6046 22.8031 84.8685 22.4467 84.6269 22.6011C84.3853 22.7555 84.6316 23.4699 84.3953 23.6323C84.1134 23.8262 84.3001 24.0404 84.5458 24.2937C84.7151 24.4683 84.9125 24.6615 85.0039 24.8793C85.2278 25.4133 83.9974 25.8864 84.5637 25.7736C85.1481 25.6571 85.3386 26.5699 85.8303 26.2322C86.9426 25.4683 86.9024 25.531 87.8732 26.4693C88.1428 26.7299 88.6722 25.7096 89.0287 25.8241C89.7003 26.0398 90.2491 26.763 90.6925 27.8561C90.7553 28.0108 90.1603 30.535 90.1329 30.6997C90.0692 31.0836 91.8501 30.2175 91.8454 30.6361C91.8391 31.1886 92.8178 30.4922 93.0995 30.9764C93.1349 30.9323 95.1203 30.0263 95.2154 29.9559L96.591 28.6216C97.4927 27.0731 97.837 25.2054 97.5471 23.4356C97.3644 22.321 96.9107 21.211 96.0659 20.4644H96.0659Z" fill="#2F2E41"/>
<path d="M69.5546 128.736C69.5546 128.883 69.6716 129 69.8174 129H118.026C118.172 129 118.289 128.883 118.289 128.736C118.289 128.59 118.172 128.473 118.026 128.473H69.8174C69.6716 128.473 69.5546 128.59 69.5546 128.736Z" fill="#CCCCCC"/>
<path d="M-2 109.898C-2 110.045 -1.88294 110.162 -1.73718 110.162H46.4716C46.6173 110.162 46.7344 110.045 46.7344 109.898C46.7344 109.752 46.6173 109.635 46.4716 109.635H-1.73718C-1.88294 109.635 -2 109.752 -2 109.898Z" fill="#CCCCCC"/>
</g>
</g>
<defs>
<clipPath id="clip0_102_3168">
<rect width="140" height="140" fill="white"/>
</clipPath>
<clipPath id="clip1_102_3168">
<rect width="136" height="110" fill="white" transform="translate(-2 19)"/>
</clipPath>
</defs>
</svg>
